3.0Hz3min_grf.mot
version=1
nRows=10
nColumns 19
inDegrees=yes
endheader
time	1_ground_force_vx	1_ground_force_vy	1_ground_force_vz	1_ground_force_px	1_ground_force_py	1_ground_force_pz	1_ground_torque_x	1_ground_torque_y	1_ground_torque_z	2_ground_force_vx	2_ground_force_vy	2_ground_force_vz	2_ground_force_px	2_ground_force_py	2_ground_force_pz	2_ground_torque_x	2_ground_torque_y	2_ground_torque_z
            1.253500	           11.503666	         1142.602281	          -96.978183	           -0.269414	            0.006235	           -0.409608	            0.054150	            5.378488	           -0.456498	            3.433343	         1138.593589	          113.684771	           -0.264223	            0.005593	           -0.715321	           -0.012211	           -4.049411	           -0.404320
            1.254000	           11.274514	         1143.503202	          -96.882045	           -0.269399	            0.006234	           -0.409502	            0.050342	            5.105851	           -0.432588	            3.762622	         1138.226370	          113.683318	           -0.264247	            0.005592	           -0.715218	           -0.013464	           -4.072835	           -0.406785
            1.254500	           11.321564	         1141.879339	          -96.522268	           -0.269298	            0.006235	           -0.409677	            0.049014	            4.943514	           -0.417872	            3.808643	         1138.411958	          113.308530	           -0.264226	            0.005592	           -0.715155	           -0.013661	           -4.083443	           -0.406434
            1.255000	           11.094350	         1141.515360	          -95.743699	           -0.269225	            0.006235	           -0.409714	            0.047632	            4.900898	           -0.411059	            4.089056	         1138.597464	          113.262147	           -0.264242	            0.005592	           -0.715110	           -0.015194	           -4.230728	           -0.420852
            1.255500	           11.003381	         1141.333744	          -95.469102	           -0.269207	            0.006235	           -0.409629	            0.048684	            5.049762	           -0.422397	            4.136325	         1138.415318	          112.698332	           -0.264231	            0.005592	           -0.715124	           -0.015425	           -4.245341	           -0.420271
            1.256000	           10.730162	         1140.609801	          -94.783668	           -0.269173	            0.006235	           -0.409634	            0.049973	            5.312106	           -0.441431	            3.948054	         1138.600639	          112.229789	           -0.264229	            0.005592	           -0.715060	           -0.014658	           -4.227328	           -0.416680
            1.256500	           10.409426	         1139.708380	          -94.786736	           -0.269103	            0.006235	           -0.409592	            0.049770	            5.449247	           -0.453200	            4.182866	         1138.417998	          111.994383	           -0.264245	            0.005591	           -0.714959	           -0.015790	           -4.297474	           -0.422774
            1.257000	           10.455481	         1139.167426	          -94.743317	           -0.269011	            0.006235	           -0.409533	            0.049040	            5.343151	           -0.444384	            3.714285	         1138.416975	          111.806870	           -0.264118	            0.005592	           -0.715007	           -0.013836	           -4.240718	           -0.416492
            1.257500	           10.364855	         1137.723907	          -94.428278	           -0.268991	            0.006235	           -0.409702	            0.047095	            5.169444	           -0.429051	            3.486538	         1136.575772	          111.471910	           -0.264036	            0.005592	           -0.714913	           -0.013069	           -4.260501	           -0.417857
            1.258000	            9.906884	         1136.461474	          -94.340847	           -0.268950	            0.006235	           -0.409709	            0.043011	            4.934014	           -0.409586	            3.111636	         1136.575256	          111.237421	           -0.263952	            0.005592	           -0.714912	           -0.011730	           -4.284597	           -0.419337
